<svg width="16" height="16" fill="none" xmlns="http://www.w3.org/2000/svg">
  <mask id="a" fill="#fff">
    <path fill-rule="evenodd" clip-rule="evenodd" d="M10 2c0 1.1046-.8954 2-2 2s-2-.8954-2-2 .8954-2 2-2 2 .8954 2 2zm0 6c0 1.1046-.8954 2-2 2s-2-.8954-2-2 .8954-2 2-2 2 .8954 2 2zm-2 8c1.1046 0 2-.8954 2-2s-.8954-2-2-2-2 .8954-2 2 .8954 2 2 2z"/>
  </mask>
  <path d="M8 6c2.2091 0 4-1.7909 4-4H8v4zM4 2c0 2.2091 1.7909 4 4 4V2H4zm4-4C5.7909-2 4-.2091 4 2h4v-4zm4 4c0-2.2091-1.7909-4-4-4v4h4zM8 12c2.2091 0 4-1.7909 4-4H8v4zM4 8c0 2.2091 1.7909 4 4 4V8H4zm4-4C5.7909 4 4 5.7909 4 8h4V4zm4 4c0-2.2091-1.7909-4-4-4v4h4zm-4 6v4c2.2091 0 4-1.7909 4-4H8zm0 0h4c0-2.2091-1.7909-4-4-4v4zm0 0v-4c-2.2091 0-4 1.7909-4 4h4zm0 0H4c0 2.2091 1.7909 4 4 4v-4z" fill="currentColor" mask="url(#a)"/>
  <mask id="c" maskUnits="userSpaceOnUse" x="6" y="0" width="4" height="16">
    <g fill="#fff">
      <path fill-rule="evenodd" clip-rule="evenodd" d="M10 2c0 1.1046-.8954 2-2 2s-2-.8954-2-2 .8954-2 2-2 2 .8954 2 2zm0 6c0 1.1046-.8954 2-2 2s-2-.8954-2-2 .8954-2 2-2 2 .8954 2 2zm-2 8c1.1046 0 2-.8954 2-2s-.8954-2-2-2-2 .8954-2 2 .8954 2 2 2z"/>
      <path d="M8 6c2.2091 0 4-1.7909 4-4H8v4zM4 2c0 2.2091 1.7909 4 4 4V2H4zm4-4C5.7909-2 4-.2091 4 2h4v-4zm4 4c0-2.2091-1.7909-4-4-4v4h4zM8 12c2.2091 0 4-1.7909 4-4H8v4zM4 8c0 2.2091 1.7909 4 4 4V8H4zm4-4C5.7909 4 4 5.7909 4 8h4V4zm4 4c0-2.2091-1.7909-4-4-4v4h4zm-4 6v4c2.2091 0 4-1.7909 4-4H8zm0 0h4c0-2.2091-1.7909-4-4-4v4zm0 0v-4c-2.2091 0-4 1.7909-4 4h4zm0 0H4c0 2.2091 1.7909 4 4 4v-4z" />
    </g>
  </mask>
</svg>