<svg width="20" height="20" fill="currentColor" xmlns="http://www.w3.org/2000/svg">
  <path d="M10.8963 3.4142c.7811-.781 2.0474-.781 2.8285 0l2.8284 2.8284c.781.781.781 2.0474 0 2.8285l-6.9484 6.9484a.4998.4998 0 01-.3066.1442l-3.7157.3506c-1.2604.1189-2.3128-.9483-2.1762-2.2069l.3953-3.6424a.5.5 0 01.1435-.2996l6.9512-6.9512zm.7064 2.1221c.3905-.3905 1.0236-.3905 1.4142 0l1.4142 1.4142c.3905.3906.3905 1.0237 0 1.4142l-.7079.708-2.8284-2.8285.7079-.7079zm-2.123 2.1229l-3.5369 3.537-.4138 2.0653c-.1403.6999.477 1.3172 1.177 1.1769l2.0652-.4138 3.537-3.537-2.8284-2.8284z" />
</svg>