
<svg width="20" height="20" fill="none" xmlns="http://www.w3.org/2000/svg">
  <path opacity=".01" fill="#C3CADF" d="M0 0h20v20H0z"/>
  <path d="M4 17c-1.1046 0-2-.8954-2-2V3c0-1.1046.8954-2 2-2h10c1.1046 0 2 .8954 2 2v1" stroke="#3E4056" stroke-width="2"/>
  <rect x="5" y="4" width="8" height="2" rx="1" fill="#3E4056"/>
  <path fill-rule="evenodd" clip-rule="evenodd" d="M5 9c0-.5523.4477-1 1-1h4l-2 2H6c-.5523 0-1-.4477-1-1zM13.8933 6.9276c.781-.781 2.0474-.781 2.8284 0l2.8284 2.8285c.7811.781.7811 2.0473 0 2.8284l-6.9437 6.9437a.5.5 0 01-.3067.1442l-3.715.3495c-1.26.1186-2.3119-.9482-2.1757-2.2064l.3943-3.6416a.5003.5003 0 01.1435-.2998l6.9465-6.9465zm.7071 2.1214c.3905-.3906 1.0237-.3906 1.4142 0l1.4142 1.4142c.3905.3905.3905 1.0237 0 1.4142l-.7071.7071-2.8284-2.8284.7071-.7071zm-2.1213 2.1213l-3.535 3.535-.4133 2.0649c-.14.6998.477 1.3168 1.1768 1.1767l2.0649-.4132 3.535-3.535-2.8284-2.8284z" fill="#3E4056"/>
</svg>