<svg width="20" height="20" fill="currentColor" xmlns="http://www.w3.org/2000/svg"><path d="M8.588 4.34a5.002 5.002 0 017.069.003 5.001 5.001 0 01.002 7.069l-4.247 4.247a5.002 5.002 0 01-7.069-.002 5.001 5.001 0 01-.002-7.069l4.247-4.247zm1.414 1.415l-4.247 4.247a3 3 0 004.243 4.243l4.247-4.247a3 3 0 00-4.243-4.243zM7.879 5.05L5.05 7.88l1.415 1.414 2.828-2.828L7.879 5.05zm5.657 5.657l-2.829 2.828 1.414 1.415 2.829-2.829-1.414-1.414zm-2.822-2.835a.993.993 0 011.407.007 1 1 0 01.007 1.407l-2.842 2.842a.993.993 0 01-1.407-.007 1 1 0 01-.007-1.407l2.842-2.842z"/></svg>