<?xml version="1.0" encoding="utf-8"?><svg xmlns="http://www.w3.org/2000/svg" xmlns:xlink="http://www.w3.org/1999/xlink"><symbol viewBox="0 0 16 16" id="arrow_down" xmlns="http://www.w3.org/2000/svg"><path d="M4 6l4 4 4-4" opacity=".4"/></symbol><symbol viewBox="0 0 16 16" id="block" xmlns="http://www.w3.org/2000/svg"><path d="M12.95 12.95a7 7 0 11-9.9-9.9 7 7 0 019.9 9.9zM5 11l6-6m0 6L5 5" stroke-width="2"/></symbol><symbol viewBox="0 0 16 16" id="dots" xmlns="http://www.w3.org/2000/svg"><path opacity=".01" d="M0 0h16v16H0z"/><mask id="ca"><path fill-rule="evenodd" clip-rule="evenodd" d="M10 2a2 2 0 11-4 0 2 2 0 014 0zm0 6a2 2 0 11-4 0 2 2 0 014 0zm-2 8a2 2 0 100-4 2 2 0 000 4z"/></mask><path d="M8 6a4 4 0 004-4H8v4zM4 2a4 4 0 004 4V2H4zm4-4a4 4 0 00-4 4h4v-4zm4 4a4 4 0 00-4-4v4h4zM8 12a4 4 0 004-4H8v4zM4 8a4 4 0 004 4V8H4zm4-4a4 4 0 00-4 4h4V4zm4 4a4 4 0 00-4-4v4h4zm-4 6v4a4 4 0 004-4H8zm0 0h4a4 4 0 00-4-4v4zm0 0v-4a4 4 0 00-4 4h4zm0 0H4a4 4 0 004 4v-4z" mask="url(#ca)"/><mask id="cc" maskUnits="userSpaceOnUse" x="6" y="0" width="4" height="16"><mask id="cb"><path fill-rule="evenodd" clip-rule="evenodd" d="M10 2a2 2 0 11-4 0 2 2 0 014 0zm0 6a2 2 0 11-4 0 2 2 0 014 0zm-2 8a2 2 0 100-4 2 2 0 000 4z"/></mask><path fill-rule="evenodd" clip-rule="evenodd" d="M10 2a2 2 0 11-4 0 2 2 0 014 0zm0 6a2 2 0 11-4 0 2 2 0 014 0zm-2 8a2 2 0 100-4 2 2 0 000 4z"/><path d="M8 6a4 4 0 004-4H8v4zM4 2a4 4 0 004 4V2H4zm4-4a4 4 0 00-4 4h4v-4zm4 4a4 4 0 00-4-4v4h4zM8 12a4 4 0 004-4H8v4zM4 8a4 4 0 004 4V8H4zm4-4a4 4 0 00-4 4h4V4zm4 4a4 4 0 00-4-4v4h4zm-4 6v4a4 4 0 004-4H8zm0 0h4a4 4 0 00-4-4v4zm0 0v-4a4 4 0 00-4 4h4zm0 0H4a4 4 0 004 4v-4z" mask="url(#cb)"/></mask><g mask="url(#cc)"><path d="M-4-4h24v24H-4z"/></g></symbol><symbol viewBox="0 0 20 20" id="edit" xmlns="http://www.w3.org/2000/svg"><path fill-rule="evenodd" clip-rule="evenodd" d="M10.896 3.414a2 2 0 012.829 0l2.828 2.829a2 2 0 010 2.828L9.605 16.02a.5.5 0 01-.307.144l-3.716.35a2 2 0 01-2.176-2.207l.396-3.642a.5.5 0 01.143-.3l6.951-6.95zm.707 2.122a1 1 0 011.414 0l1.414 1.415a1 1 0 010 1.414l-.708.708-2.828-2.829.708-.708zM9.48 7.66l-3.537 3.537-.414 2.066a1 1 0 001.177 1.176l2.065-.413 3.537-3.537-2.828-2.83z"/></symbol><symbol viewBox="0 0 32 32" id="gift" xmlns="http://www.w3.org/2000/svg"><g opacity=".98"><path opacity=".01" d="M0 0h32v32H0z"/><rect x="10" y="12" width="12" height="10" rx="2"/><path clip-rule="evenodd" d="M12.424 12.471c1.082.394 3.047.156 3.425-.882.378-1.037-.975-2.483-2.056-2.876-1.082-.394-2.264.128-2.642 1.166-.378 1.038.192 2.199 1.273 2.592z"/><path clip-rule="evenodd" d="M19.576 12.471c-1.082.394-3.047.156-3.425-.882-.378-1.037.975-2.483 2.056-2.876 1.082-.394 2.264.128 2.642 1.166.378 1.038-.192 2.199-1.273 2.592z"/><path d="M15 12h2v10h-2z"/><mask id="ea"><path d="M8 13a2 2 0 012-2h12a2 2 0 012 2v3a1 1 0 01-1 1H9a1 1 0 01-1-1v-3z"/></mask><path d="M8 13a2 2 0 012-2h12a2 2 0 012 2v3a1 1 0 01-1 1H9a1 1 0 01-1-1v-3z" mask="url(#ea)"/></g></symbol><symbol viewBox="0 0 16 14" id="like" xmlns="http://www.w3.org/2000/svg"><path fill-rule="evenodd" clip-rule="evenodd" d="M8 8.093C7.18 9.255 5.908 10 4.48 10 2.006 10 0 7.761 0 5s2.006-5 4.48-5C5.908 0 7.18.745 8 1.907 8.82.745 10.092 0 11.52 0 13.994 0 16 2.239 16 5s-2.006 5-4.48 5c-1.428 0-2.7-.745-3.52-1.907z"/><mask id="fa" maskUnits="userSpaceOnUse" x="0" y="0" width="16" height="10"><path fill-rule="evenodd" clip-rule="evenodd" d="M8 8.093C7.18 9.255 5.908 10 4.48 10 2.006 10 0 7.761 0 5s2.006-5 4.48-5C5.908 0 7.18.745 8 1.907 8.82.745 10.092 0 11.52 0 13.994 0 16 2.239 16 5s-2.006 5-4.48 5c-1.428 0-2.7-.745-3.52-1.907z"/></mask><g mask="url(#fa)"><path d="M0 0h16v16H0z"/><path d="M0 0h16v16H0z"/></g><path fill-rule="evenodd" clip-rule="evenodd" d="M8 14c2.761 0 8-5 8-9H0c0 4 5.239 9 8 9z"/><mask id="fb" maskUnits="userSpaceOnUse" x="0" y="5" width="16" height="9"><path fill-rule="evenodd" clip-rule="evenodd" d="M8 14c2.761 0 8-5 8-9H0c0 4 5.239 9 8 9z"/></mask><g mask="url(#fb)"><path d="M0 0h16v16H0z"/><path d="M0 0h16v16H0z"/></g></symbol><symbol viewBox="0 0 16 16" id="link" xmlns="http://www.w3.org/2000/svg"><path d="M0 0h16v16H0z"/></symbol><symbol viewBox="0 0 32 32" id="medium" xmlns="http://www.w3.org/2000/svg"><path opacity=".01" d="M0 0h32v32H0z"/><path d="M9.897 11.652a.642.642 0 00-.201-.535L8.202 9.275V9h4.638l3.586 8.048L19.578 9H24v.275l-1.277 1.253a.386.386 0 00-.142.367v9.21a.386.386 0 00.142.366l1.247 1.254V22h-6.274v-.275l1.292-1.284c.127-.13.127-.168.127-.367V12.63l-3.593 9.34h-.486l-4.183-9.34v6.26a.876.876 0 00.232.718l1.68 2.086v.275H8v-.275l1.68-2.086c.18-.19.26-.457.217-.718v-7.238z"/></symbol><symbol viewBox="0 0 32 32" id="notifications" xmlns="http://www.w3.org/2000/svg"><path d="M17.647 22.4h2v-2h-2v2zm-3.294 0v-2h-2v2h2zm.86-10.707l.449 1.95-.449-1.95zm.787-.181l.449-1.949L16 9.46l-.449.103.449 1.949zM12.647 19.6h-2v2h2v-2zm8.317 0v2h.846l.589-.606-1.435-1.394zm.8 0l-1.393 1.435 1.394-1.435zM23 20.8h2v-.846l-.606-.589L23 20.8zm0 .8v2h2v-2h-2zm-14 0H7v2h2v-2zm0-.8l-1.394-1.435-.606.59v.845h2zm1.235-1.2l-1.393-1.435 1.393 1.435zm.412-.4l1.394 1.435.606-.59V19.2h-2zm4.118-9.456l.448 1.949 1.552-.357V9.744h-2zm2.47 0h-2v1.592l1.552.357.448-1.949zm2.118 9.456h-2v2h2v-2zm-2.566-7.507l-.449 1.95.449-1.95zM16 26c1.955 0 3.647-1.561 3.647-3.6h-4c0-.279.21-.4.353-.4v4zm-3.647-3.6c0 2.039 1.692 3.6 3.647 3.6v-4c.144 0 .353.121.353.4h-4zm3.294-2h-1.294v4h1.294v-4zm.353 0h-.353v4H16v-4zm.353 0H16v4h.353v-4zm1.294 0h-1.294v4h1.294v-4zm-1.985-6.758l.787-.181-.898-3.898-.786.181.897 3.898zM14.647 14.8c0-.48.355-1.006 1.015-1.158l-.897-3.898c-2.372.546-4.118 2.608-4.118 5.056h4zm0 4.4v-4.4h-4v4.4h4zm0 .4v-.4h-4v.4h4zm6.317-2h-8.317v4h8.317v-4zm-1.046.206l-.388.4 2.869 2.788.389-.4-2.87-2.788zm3.24.36l-.412-.4-2.787 2.869.412.4 2.787-2.87zm1.236 1.2l-1.236-1.2-2.787 2.869 1.235 1.2 2.788-2.87zM25 21.6v-.8h-4v.8h4zm-2.777 2H23v-4h-.777v4zM21 23.6h1.223v-4H21v4zm-.047 0H21v-4h-.047v4zm-9.906 0h9.906v-4h-9.906v4zm-.047 0h.047v-4H11v4zm-1.223 0H11v-4H9.777v4zM9 23.6h.777v-4H9v4zm-2-2.8v.8h4v-.8H7zm1.842-2.635l-1.236 1.2 2.788 2.87 1.235-1.2-2.787-2.87zm.411-.4l-.411.4 2.787 2.87.412-.4-2.788-2.87zM8.647 14.8v4.4h4v-4.4h-4zm5.669-7.005c-3.212.74-5.669 3.557-5.669 7.005h4c0-1.464 1.05-2.758 2.566-3.107l-.897-3.898zM12.765 9.2v.544h4V9.2h-4zM16 6c-1.733 0-3.235 1.377-3.235 3.2h4c0 .495-.399.8-.765.8V6zm3.235 3.2C19.235 7.377 17.733 6 16 6v4a.784.784 0 01-.765-.8h4zm0 .544V9.2h-4v.544h4zm4.118 5.056c0-3.448-2.458-6.266-5.67-7.005l-.896 3.898c1.515.349 2.566 1.643 2.566 3.107h4zm0 4.4v-4.4h-4v4.4h4zm-4 2h2v-4h-2v4zm-2-6.4v4.4h4v-4.4h-4zm-1.015-1.158c.66.152 1.015.679 1.015 1.158h4c0-2.448-1.747-4.51-4.118-5.056l-.897 3.898zm-.787-.181l.787.181.897-3.898-.786-.181-.898 3.898z"/></symbol><symbol viewBox="0 0 20 20" id="plus" xmlns="http://www.w3.org/2000/svg"><path fill-rule="evenodd" clip-rule="evenodd" d="M10.91 0H9.09v9.09H0v1.82h9.09V20h1.82v-9.09H20V9.09h-9.09V0z"/></symbol><symbol viewBox="0 0 20 20" id="report" xmlns="http://www.w3.org/2000/svg"><path opacity=".01" d="M0 0h20v20H0z"/><path d="M4 17a2 2 0 01-2-2V3a2 2 0 012-2h10a2 2 0 012 2v1"/><rect x="5" y="4" width="8" height="2" rx="1"/><path fill-rule="evenodd" clip-rule="evenodd" d="M5 9a1 1 0 011-1h4l-2 2H6a1 1 0 01-1-1zm8.893-2.072a2 2 0 012.829 0l2.828 2.828a2 2 0 010 2.829l-6.944 6.943a.5.5 0 01-.306.144l-3.715.35a2 2 0 01-2.176-2.206l.394-3.642a.5.5 0 01.144-.3l6.946-6.946zm.707 2.121a1 1 0 011.415 0l1.414 1.414a1 1 0 010 1.414l-.707.707-2.829-2.828.707-.707zm-2.12 2.121l-3.536 3.535-.413 2.065a1 1 0 001.177 1.177l2.065-.413 3.534-3.535-2.828-2.829z"/></symbol><symbol viewBox="0 0 16 16" id="view" xmlns="http://www.w3.org/2000/svg"><path opacity=".01" d="M0 0h16v16H0z"/><path fill-rule="evenodd" clip-rule="evenodd" d="M15 8a2.306 2.306 0 01-.929 1.814L7.96 14.496c-.732.554-1.73.66-2.57.275-.842-.386-1.381-1.196-1.39-2.09V3.319c.009-.893.548-1.703 1.39-2.089a2.533 2.533 0 012.57.275l6.111 4.682c.58.439.922 1.106.929 1.814z"/><mask id="la" maskUnits="userSpaceOnUse" x="4" y="1" width="11" height="14"><path fill-rule="evenodd" clip-rule="evenodd" d="M15 8a2.306 2.306 0 01-.929 1.814L7.96 14.496c-.732.554-1.73.66-2.57.275-.842-.386-1.381-1.196-1.39-2.09V3.319c.009-.893.548-1.703 1.39-2.089a2.533 2.533 0 012.57.275l6.111 4.682c.58.439.922 1.106.929 1.814z"/></mask><g mask="url(#la)"><path d="M0 0h16v16H0z"/></g></symbol></svg>